# xmcd
#
# Track frame offsets:
#	150
#	12240
#	31663
#	46509
#	62357
#	75377
#	87899
#	99170
#	113948
#	125274
#	136999
#	152468
#
# Disc length: 2221 seconds
#
# Revision: 0
# Processed by: cddbd v1.5.2PL0 Copyright (c) Steve Scherf et al.
# Submitted via: dBpowerAMP V4.0
#
DISCID=7608ab0c
DTITLE=Various Artist - Countryside
DYEAR=1900
DGENRE=Country
TTITLE0=Ring of fire
TTITLE1=Man of constant sorrow
TTITLE2=All my ex's live in Texas
TTITLE3=Queen of hearts
TTITLE4=Crazy
TTITLE5=New York City
TTITLE6=Luciana woman Mississippi man
TTITLE7=Johnny walker red
TTITLE8=Bed of roses
TTITLE9=Mama don't let your babies grow up to be cowboys
TTITLE10=One step forward and twp steps back
TTITLE11=I love a rainy night
EXTD=
EXTT0=
EXTT1=
EXTT2=
EXTT3=
EXTT4=
EXTT5=
EXTT6=
EXTT7=
EXTT8=
EXTT9=
EXTT10=
EXTT11=
PLAYORDER=
